<svg xmlns="http://www.w3.org/2000/svg" width="1024" height="1024" viewBox="-51.5 -51.5 1127.0 1127.0">
  <g fill="none" stroke="black" stroke-width="45" stroke-linecap="round" stroke-linejoin="round">
    <path d="M 460.28,266.88 C 444.32,295.06 437.95,304.63 426.81,317.32 C 413.2,328.77 397.79,338.15 380.76,345.13 C 364.31,349.12 344.14,351.24 323.17,348.94 C 306.39,344.45 290.78,337.5 275.09,327.57 C 261.74,315.97 252.75,305.2 246.05,295.24 L 230.67,266.74" data-line="nan"  stroke-width="45.0"/>
    <path d="M 691.68,269.36 C 673.05,298.21 665.72,308.22 653.35,321.06 C 640.55,330.92 625.88,339.45 610.1,345.69 C 592.2,349.78 574.48,351.28 556.81,349.66 C 538.1,344.86 520.42,337.25 506.41,328.52 C 494.49,318.85 482.54,305.36 474.87,293.62 L 460.28,266.88" data-line="nan"  stroke-width="45.0"/>
    <path d="M 230.67,266.74 C 212.8,297.97 201.04,313.26 191.68,322.3 C 183.45,328.85 171.81,336.24 162.77,340.79 C 151.05,345.23 140.47,348.13 127.79,350.2 C 114.41,351.21 103.25,350.67 93.33,349.16 L 66.11,341.83" data-line="nan"  stroke-width="45.0"/>
    <path d="M 629.31,551.89 C 613.59,562.84 598.67,575.05 585.58,587.51 C 573.84,600.34 562.19,615.02 552.48,629.29 C 544.23,643.29 535.37,661.12 528.83,677.06 C 522.73,695.52 518.59,711.86 515.2,730.55 C 513.35,746.57 512.45,765.67 513.01,784.03 L 515.07,804.33" data-line="nan"  stroke-width="45.0"/>
    <path d="M 921.6,237.1 C 919.89,254.79 916.68,268.28 913.66,277.2 C 905.0,295.2 899.05,304.13 891.67,313.16 C 882.97,321.9 873.74,329.4 854.0,341.36 C 834.47,347.78 821.81,350.29 802.14,351.23 C 780.11,348.15 762.26,342.59 746.61,334.53 C 728.74,321.95 716.82,309.68 708.11,297.73 L 691.68,269.36" data-line="nan"  stroke-width="45.0"/>
    <path d="M 556.33,912.55 C 568.98,929.78 581.94,944.7 599.98,962.06 C 616.46,975.25 633.63,986.82 650.95,996.44 C 668.33,1004.32 687.35,1011.27 707.03,1016.74 C 729.23,1021.02 750.65,1023.34 773.0,1023.93 C 797.86,1022.44 818.77,1019.36 838.08,1014.91 C 858.15,1008.55 875.99,1001.26 895.37,991.32 C 913.33,979.9 932.09,965.67 948.6,950.52 C 962.68,935.16 974.47,920.13 987.16,900.88 C 997.57,881.67 1005.29,864.28 1012.34,844.36 C 1017.81,823.56 1021.22,804.3 1023.69,779.2 Q 1023.78,756.7 1022.06,735.87" data-line="nan"  stroke-width="45.0"/>
    <path d="M 946.08,583.95 C 929.94,569.64 913.98,557.67 893.57,544.96 C 876.9,536.39 855.02,527.32 835.17,521.01 C 815.57,516.45 793.99,513.28 770.14,512.0 C 746.02,512.78 726.91,514.96 706.75,518.94 C 685.74,524.93 666.5,532.23 646.34,541.91 L 629.31,551.89" data-line="nan"  stroke-width="45.0"/>
    <path d="M 592.84,480.15 L 328.12,479.92" data-line="0.0"  stroke-width="45.0"/>
    <path d="M 592.84,480.15 L 593.37,498.91" data-line="1.0"  stroke-width="45.0"/>
    <path d="M 466.98,877.43 L 1.38,877.4" data-line="2.0"  stroke-width="45.0"/>
    <path d="M 328.12,479.92 L 327.96,877.44" data-line="3.0"  stroke-width="45.0"/>
    <path d="M 844.79,0.23 L 921.6,237.1" data-line="6.0"  stroke-width="45.0"/>
    <path d="M 854.0,459.83 L 854.0,341.36" data-line="7.0"  stroke-width="45.0"/>
    <path d="M 66.12,877.42 L 66.11,341.83" data-line="9.0"  stroke-width="45.0"/>
    <path d="M 844.79,0.23 L 76.4,1.11" data-line="11.0"  stroke-width="45.0"/>
    <path d="M 230.66,253.28 L 230.67,266.74" data-line="12.0"  stroke-width="45.0"/>
    <path d="M 76.4,1.11 L 8.84,193.44" data-line="13.0"  stroke-width="45.0"/>
    <path d="M 646.0,646.25 L 889.53,889.81" data-line="31.0"  stroke-width="45.0"/>
    <path d="M 645.89,890.95 L 888.96,647.68" data-line="32.0"  stroke-width="45.0"/>
    <path d="M 8.708533417314143,193.38643067521784 A 114.9338225811276,114.9338225811276 0 0,0 66.54055557056063,340.90740315197735" data-line="34.0"  stroke-width="45.0"/>
    <path d="M 515.072399822244,804.3296599869105 A 261.39361742575534,261.39361742575534 0 0,0 556.3216705056933,912.5555474399308" data-line="35.0"  stroke-width="45.0"/>
    <path d="M 1022.0049806626607,735.8765762104741 A 251.54831983780412,251.54831983780412 0 0,0 946.0939344865802,583.9354294888869" data-line="37.0"  stroke-width="45.0"/>
  </g>
</svg>