<svg xmlns="http://www.w3.org/2000/svg" width="1024" height="1024" viewBox="-51.5 -51.5 1127.0 1127.0">
  <g fill="none" stroke="black" stroke-width="45" stroke-linecap="round" stroke-linejoin="round">
    <path d="M 322.683,312.866 C 328.904,308.033 337.003,304.333 345.805,302.866 C 356.857,303.679 363.394,305.833 370.346,309.828 Q 376.761,315.848 386.662,327.069" data-line="nan"  stroke-width="45.0"/>
    <path d="M 480.616,433.966 L 487.231,439.983" data-line="nan"  stroke-width="45.0"/>
    <path d="M 487.231,439.983 C 500.929,436.721 530.993,423.93 542.411,421.649 C 552.333,422.305 559.659,424.43 566.767,428.449 L 573.289,434.452" data-line="nan"  stroke-width="45.0"/>
    <path d="M 751.261,133.276 C 749.258,122.84 746.266,115.23 741.29,106.63 C 733.759,98.436 724.972,92.199 715.883,88.41 Q 707.386,86.91 696.685,86.715" data-line="nan"  stroke-width="45.0"/>
    <circle cx="559.127853505388" cy="261.6957501437488" r="58.9181091190553" data-line="4.0"  stroke-width="45.0"/>
    <path d="M 870.8182615130894,730.7643401775695 A 139.31357326546132,139.31357326546132 0 0,1 736.7752223803744,732.4833892152012" data-line="6.0"  stroke-width="45.0"/>
    <path d="M 915.311,886.951 L 878.196,728.39" data-line="7.0"  stroke-width="45.0"/>
    <path d="M 804.567,824.502 L 693.023,884.659" data-line="8.0"  stroke-width="45.0"/>
    <path d="M 804.567,824.502 L 915.311,886.951" data-line="9.0"  stroke-width="45.0"/>
    <path d="M 728.892,730.186 L 693.023,884.659" data-line="10.0"  stroke-width="45.0"/>
    <path d="M 675.756,621.966 L 285.46,622.451" data-line="11.0"  stroke-width="45.0"/>
    <path d="M 420.828,622.165 L 421.123,808.101" data-line="12.0"  stroke-width="45.0"/>
    <path d="M 611.725,791.176 L 232.401,790.941" data-line="13.0"  stroke-width="45.0"/>
    <path d="M 299.517,622.431 L 140.332,1019.078" data-line="14.0"  stroke-width="45.0"/>
    <path d="M 542.651,621.508 L 704.185,1020.0" data-line="15.0"  stroke-width="45.0"/>
    <path d="M 877.9698125946715,726.1763948265002 A 126.80492923743869,126.80492923743869 0 1,0 676.2846489164275,630.6429810745286" data-line="16.0"  stroke-width="45.0"/>
    <path d="M 675.4474709208603,630.693045138004 A 129.61278812101202,129.61278812101202 0 0,0 729.9317328213165,726.6762493812034" data-line="17.0"  stroke-width="45.0"/>
    <path d="M 157.109,480.839 L 322.683,312.866" data-line="19.0"  stroke-width="45.0"/>
    <path d="M 386.662,327.069 L 480.616,433.966" data-line="21.0"  stroke-width="45.0"/>
    <path d="M 421.828,87.208 L 421.858,4.0" data-line="21.0"  stroke-width="45.0"/>
    <path d="M 421.123,808.101 L 421.573,998.735" data-line="23.0"  stroke-width="45.0"/>
    <path d="M 145.38540184523575,85.0006294231697 A 54.82269389609539,54.82269389609539 0 0,0 95.71260813223478,156.77626392947033" data-line="24.0"  stroke-width="45.0"/>
    <path d="M 573.289,434.452 L 633.923,503.226" data-line="24.0"  stroke-width="45.0"/>
    <path d="M 751.344,507.474 L 751.261,133.276" data-line="25.0"  stroke-width="45.0"/>
    <path d="M 93.838,157.388 L 94.036,566.923" data-line="25.0"  stroke-width="45.0"/>
    <path d="M 93.87660059324679,566.9188401049297 A 54.62813301719374,54.62813301719374 0 0,0 162.5189000843849,621.1390260752229" data-line="26.0"  stroke-width="45.0"/>
    <path d="M 162.853,622.396 L 285.46,622.451" data-line="27.0"  stroke-width="45.0"/>
    <path d="M 696.685,86.715 L 145.426,85.91" data-line="27.0"  stroke-width="45.0"/>
  </g>
</svg>