<svg xmlns="http://www.w3.org/2000/svg" width="1024" height="1024" viewBox="-51.5 -51.5 1127.0 1127.0">
  <g fill="none" stroke="black" stroke-width="45" stroke-linecap="round" stroke-linejoin="round">
    <path d="M 114.948,1020.0 C 118.864,990.745 123.679,963.362 129.695,935.781 C 138.404,902.727 146.788,875.513 156.424,847.852 C 181.006,787.458 193.638,760.017 207.238,733.056 C 221.068,707.851 237.498,680.221 271.867,628.663 C 288.857,606.241 305.11,586.72 332.951,556.812 C 362.647,528.808 393.139,503.486 426.285,479.261 C 456.965,459.167 485.533,442.035 585.94,387.234 C 646.3,351.926 702.76,315.495 760.258,274.207" data-line="nan"  stroke-width="45.0"/>
    <path d="M 910.546,4.0 C 915.461,31.188 920.186,66.609 925.412,132.904 C 926.096,168.952 925.722,229.646 921.741,295.681 C 918.052,328.771 913.922,356.387 908.633,383.94 C 902.678,408.565 893.308,441.603 883.335,472.276 Q 872.207,502.68 859.737,533.219" data-line="nan"  stroke-width="45.0"/>
    <path d="M 391.312,215.776 C 369.229,225.747 341.637,239.582 319.731,251.765 C 297.915,265.172 275.629,280.369 259.664,292.322 C 237.477,310.677 221.352,325.478 200.627,346.556 C 185.631,363.545 172.712,380.072 161.462,396.17 C 151.262,412.52 139.188,434.627 131.385,451.05 C 122.354,473.037 114.869,495.0 108.787,517.014 C 104.12,538.824 100.804,560.844 98.74,582.79 C 97.919,610.255 98.207,632.246 100.124,654.257 C 103.373,676.183 108.168,698.114 114.652,720.072 C 120.578,736.473 130.039,758.54 138.355,775.352 L 166.044,823.351" data-line="nan"  stroke-width="45.0"/>
    <path d="M 361.051,868.349 C 314.079,865.546 275.564,860.534 239.901,853.304 L 173.683,836.186" data-line="nan"  stroke-width="45.0"/>
    <path d="M 910.546,4.0 C 746.4184234783751,146.18658438491644 562.2937910240338,139.86411533251584 391.312,215.776" data-line="0.0"  stroke-width="45.0"/>
    <path d="M 859.5930517236884,533.1592333283447 A 539.1315914929394,539.1315914929394 0 0,1 782.432979856371,663.5072785667737" data-line="4.0"  stroke-width="45.0"/>
    <path d="M 782.349,663.44 L 706.049,739.923" data-line="5.0"  stroke-width="45.0"/>
    <path d="M 706.0533478035603,739.9281951814257 A 551.2513642786884,551.2513642786884 0 0,1 361.05129011611524,868.3671972032296" data-line="6.0"  stroke-width="45.0"/>
  </g>
</svg>